<?xml version="1.0" ?><svg enable-background="new 0 0 32 32" height="32px" id="svg2" version="1.1" viewBox="0 0 32 32" width="32px" xml:space="preserve" xmlns="http://www.w3.org/2000/svg" xmlns:cc="http://creativecommons.org/ns#" xmlns:dc="http://purl.org/dc/elements/1.1/" xmlns:inkscape="http://www.inkscape.org/namespaces/inkscape" xmlns:rdf="http://www.w3.org/1999/02/22-rdf-syntax-ns#" xmlns:sodipodi="http://sodipodi.sourceforge.net/DTD/sodipodi-0.dtd" xmlns:svg="http://www.w3.org/2000/svg"><g id="background"><rect fill="none" height="32" width="32" x="0"/></g><g id="tab_x5F_add"><path d="M30,10V6h-8v4h-2V6h-8v4H10V6H0v20h14.523c1.236,3.493,4.558,5.998,8.477,6c3.917-0.002,7.239-2.507,8.477-6H32V10H30z    M23,29.883C19.2,29.874,16.125,26.799,16.116,23c0.008-3.801,3.083-6.876,6.884-6.884c3.799,0.008,6.874,3.083,6.883,6.884   C29.875,26.799,26.799,29.874,23,29.883z M23,14c-4.973,0-9,4.027-9,9c0,0.339,0.022,0.673,0.059,1.002H2V8h6v3.999h21.999v5.348   C28.349,15.306,25.829,14,23,14z"/><g><polygon points="28,22 24.002,22 24.002,18 22,18 22,22 18,22 18,24 22,24 22,28 24.002,28 24.002,24 28,24   "/></g></g></svg>