<svg width="334px" height="115px" viewBox="0 0 334 115" version="1.1" xmlns="http://www.w3.org/2000/svg" xmlns:xlink="http://www.w3.org/1999/xlink">
    <!-- Generator: Sketch 39.1 (31720) - http://www.bohemiancoding.com/sketch -->
    <desc>Created with Sketch.</desc>
    <defs></defs>
    <g id="Laag_1" stroke="none" stroke-width="1" fill="none" fill-rule="evenodd">
        <g id="Group">
            <path d="M160.649084,41.0213992 C161.368383,41.0213992 162.087681,41.0213992 162.806979,41.2012346 C163.526278,41.2012346 164.245576,41.38107 164.964875,41.5609053 C165.684173,41.7407407 166.223647,41.7407407 166.763121,41.9205761 C167.302594,42.1004115 167.842068,42.2802469 168.201717,42.2802469 L167.662244,45.517284 C166.763121,45.1576132 165.684173,44.7979424 164.425401,44.618107 C163.346453,44.4382716 162.087681,44.2584362 160.828909,44.2584362 C159.210487,44.2584362 157.951715,44.4382716 156.692943,44.7979424 C155.434171,45.1576132 154.355223,45.6971193 153.276275,46.4164609 C152.377152,47.1358025 151.478029,48.0349794 150.758731,48.9341564 C150.039433,49.8333333 149.320134,50.9123457 148.960485,52.1711934 C148.421011,53.4300412 148.061362,54.5090535 147.881537,55.9477366 C147.701713,57.2065844 147.521888,58.6452675 147.701713,59.9041152 C147.701713,61.3427984 148.061362,62.6016461 148.421011,63.6806584 C148.78066,64.7596708 149.320134,65.6588477 150.039433,66.3781893 C150.758731,67.0975309 151.657854,67.637037 152.556977,67.9967078 C153.635925,68.3563786 154.714872,68.536214 155.79382,68.536214 C158.13154,68.536214 159.929786,67.9967078 161.188558,66.9176955 C162.44733,65.8386831 163.346453,64.0403292 163.885927,61.7024691 L164.425401,59.1847737 L157.592066,59.1847737 L158.13154,55.9477366 L168.561367,55.9477366 L167.482419,62.6016461 C167.12277,64.4 166.763121,65.8386831 166.043822,67.0975309 C165.324524,68.3563786 164.425401,69.2555556 163.526278,69.9748971 C162.44733,70.6942387 161.368383,71.2337449 160.10961,71.4135802 C158.850838,71.773251 157.592066,71.773251 156.153469,71.773251 C154.355223,71.773251 152.736802,71.5934156 151.298205,71.0539095 C149.859608,70.5144033 148.600836,69.7950617 147.521888,68.8958848 C146.442941,67.9967078 145.543818,66.7378601 145.004344,65.299177 C144.285045,63.8604938 143.925396,62.0621399 143.925396,60.263786 C143.925396,58.8251029 143.925396,57.2065844 144.105221,55.7679012 C144.285045,54.3292181 144.644695,52.7106996 145.363993,51.2720165 C145.903467,49.8333333 146.622765,48.5744856 147.521888,47.3156379 C148.421011,46.0567901 149.499959,44.9777778 150.758731,44.0786008 C152.017503,43.1794239 153.4561,42.4600823 155.074521,41.9205761 C156.692943,41.2012346 158.491189,41.0213992 160.649084,41.0213992" id="Shape" fill="#564B73"></path>
            <path d="M189.960494,55.0485597 C190.140319,56.3074074 189.78067,57.3864198 189.241196,58.2855967 C188.701722,59.1847737 187.802599,59.9041152 186.543827,60.4436214 C185.285055,60.9831276 183.846458,61.3427984 182.048212,61.7024691 C180.249966,61.8823045 178.271895,62.0621399 175.934175,62.2419753 L175.934175,62.7814815 L175.934175,63.3209877 C176.114,65.299177 176.653474,66.7378601 177.732421,67.4572016 C178.811369,68.3563786 180.249966,68.7160494 182.228036,68.7160494 C182.76751,68.7160494 183.306984,68.7160494 183.846458,68.536214 C184.385932,68.536214 184.925405,68.3563786 185.464879,68.1765432 C186.004353,67.9967078 186.543827,67.9967078 186.903476,67.8168724 C187.44295,67.637037 187.802599,67.4572016 188.162248,67.2773663 L187.802599,70.5144033 C187.083301,70.8740741 186.184178,71.2337449 185.10523,71.4135802 C184.026282,71.5934156 182.947335,71.773251 181.868387,71.773251 C180.42979,71.773251 178.991193,71.5934156 177.912246,71.2337449 C176.833298,70.8740741 175.934175,70.1547325 175.035052,69.4353909 C174.315754,68.7160494 173.77628,67.8168724 173.236806,66.7378601 C172.877157,65.6588477 172.517508,64.5798354 172.517508,63.3209877 C172.517508,62.2419753 172.517508,60.9831276 172.697332,59.9041152 C172.877157,58.8251029 173.056982,57.7460905 173.416631,56.6670782 C173.77628,55.5880658 174.315754,54.6888889 174.855228,53.7897119 C175.394701,52.890535 176.114,52.1711934 177.013123,51.4518519 C177.732421,50.7325103 178.811369,50.3728395 179.710492,50.0131687 C180.789439,49.6534979 181.868387,49.4736626 183.127159,49.4736626 C184.026282,49.4736626 184.925405,49.6534979 185.644704,49.8333333 C186.364002,50.0131687 187.263125,50.3728395 187.802599,50.9123457 C188.521897,51.4518519 188.881547,51.991358 189.42102,52.7106996 C189.600845,53.2502058 189.960494,54.1493827 189.960494,55.0485597 M176.473649,59.1847737 C178.09207,59.1847737 179.530667,59.1847737 180.789439,59.0049383 C182.048212,58.8251029 183.127159,58.6452675 184.026282,58.2855967 C184.925405,57.9259259 185.464879,57.5662551 186.004353,57.026749 C186.364002,56.4872428 186.723651,55.9477366 186.543827,55.0485597 C186.543827,54.6888889 186.364002,54.5090535 186.364002,54.1493827 C186.184178,53.7897119 186.004353,53.6098765 185.644704,53.4300412 C185.285055,53.2502058 185.10523,53.0703704 184.565756,52.890535 C184.206107,52.7106996 183.666633,52.7106996 183.127159,52.7106996 C182.228036,52.7106996 181.508738,52.890535 180.789439,53.2502058 C180.070141,53.6098765 179.350843,53.9695473 178.811369,54.5090535 C178.271895,55.0485597 177.732421,55.7679012 177.372772,56.6670782 C176.833298,57.2065844 176.653474,58.1057613 176.473649,59.1847737" id="Shape" fill="#564B73"></path>
            <path d="M211.359622,53.9695473 C211.899096,53.2502058 212.438569,52.5308642 212.978043,51.991358 C213.517517,51.4518519 214.236815,50.9123457 214.776289,50.7325103 C215.495588,50.3728395 216.035061,50.1930041 216.75436,50.0131687 C217.473658,49.8333333 218.013132,49.8333333 218.73243,49.8333333 C219.451729,49.8333333 220.171027,50.0131687 220.890326,50.1930041 C221.609624,50.3728395 222.149098,50.7325103 222.688572,51.0921811 C223.228045,51.4518519 223.587695,51.991358 223.947344,52.7106996 C224.306993,53.4300412 224.486818,54.1493827 224.486818,54.8687243 L224.486818,56.6670782 C224.486818,57.3864198 224.306993,57.9259259 224.306993,58.6452675 L222.508747,71.4135802 L218.912255,71.4135802 L220.710501,57.9259259 C220.710501,57.3864198 220.890326,56.8469136 220.890326,56.4872428 L220.890326,55.5880658 C220.890326,54.5090535 220.530676,53.7897119 219.991203,53.4300412 C219.451729,52.890535 218.73243,52.7106996 217.833307,52.7106996 C216.934184,52.7106996 216.214886,52.890535 215.495588,53.2502058 C214.776289,53.6098765 214.056991,54.1493827 213.517517,54.6888889 C212.978043,55.4082305 212.438569,56.127572 212.07892,56.8469136 C211.719271,57.7460905 211.359622,58.6452675 211.179797,59.7242798 L209.561376,71.4135802 L206.144708,71.4135802 L207.942954,57.9259259 C207.942954,57.3864198 208.122779,56.8469136 208.122779,56.4872428 L208.122779,55.5880658 C208.122779,54.5090535 207.76313,53.7897119 207.223656,53.2502058 C206.684182,52.7106996 205.964884,52.5308642 205.245585,52.5308642 C204.346462,52.5308642 203.627164,52.7106996 202.907865,53.0703704 C202.188567,53.4300412 201.469269,53.9695473 200.929795,54.5090535 C200.390321,55.2283951 199.850847,55.9477366 199.491198,56.6670782 C199.131549,57.5662551 198.7719,58.4654321 198.592075,59.5444444 L196.973654,71.2337449 L193.556986,71.2337449 L196.43418,50.1930041 L199.311373,50.1930041 L199.491198,53.0703704 L199.491198,53.0703704 C200.390321,51.991358 201.289444,51.0921811 202.368392,50.5526749 C203.447339,50.0131687 204.706111,49.6534979 206.144708,49.6534979 C206.864007,49.6534979 207.403481,49.8333333 208.122779,50.0131687 C208.662253,50.1930041 209.201727,50.5526749 209.7412,50.9123457 C210.280674,51.2720165 210.640323,51.8115226 210.999973,52.3510288 C210.999973,52.5308642 211.179797,53.2502058 211.359622,53.9695473 L211.359622,53.9695473 L211.359622,53.9695473 Z" id="Shape" fill="#564B73"></path>
            <path d="M246.425419,55.0485597 C246.605244,56.3074074 246.245594,57.3864198 245.706121,58.2855967 C245.166647,59.1847737 244.267524,59.9041152 243.008752,60.4436214 C241.749979,60.9831276 240.311383,61.3427984 238.513137,61.7024691 C236.714891,61.8823045 234.73682,62.0621399 232.3991,62.2419753 L232.3991,62.7814815 L232.3991,63.3209877 C232.578925,65.299177 233.118399,66.7378601 234.197346,67.4572016 C235.276294,68.3563786 236.714891,68.7160494 238.692961,68.7160494 C239.232435,68.7160494 239.771909,68.7160494 240.311383,68.536214 C240.850856,68.536214 241.39033,68.3563786 241.929804,68.1765432 C242.469278,67.9967078 243.008752,67.9967078 243.368401,67.8168724 C243.907875,67.637037 244.267524,67.4572016 244.627173,67.2773663 L244.087699,70.5144033 C243.368401,70.8740741 242.469278,71.2337449 241.39033,71.4135802 C240.311383,71.5934156 239.232435,71.773251 238.153487,71.773251 C236.714891,71.773251 235.276294,71.5934156 234.197346,71.2337449 C233.118399,70.8740741 232.219276,70.1547325 231.320153,69.4353909 C230.600854,68.7160494 230.06138,67.8168724 229.521907,66.7378601 C229.162257,65.6588477 228.802608,64.5798354 228.802608,63.3209877 C228.802608,62.2419753 228.802608,60.9831276 228.982433,59.9041152 C229.162257,58.8251029 229.342082,57.7460905 229.701731,56.6670782 C230.06138,55.5880658 230.600854,54.6888889 231.140328,53.7897119 C231.679802,52.890535 232.3991,52.1711934 233.298223,51.4518519 C234.017522,50.7325103 234.916645,50.3728395 235.995592,50.0131687 C237.07454,49.6534979 238.153487,49.4736626 239.41226,49.4736626 C240.311383,49.4736626 241.210506,49.6534979 241.929804,49.8333333 C242.649102,50.0131687 243.548225,50.3728395 244.087699,50.9123457 C244.806998,51.4518519 245.166647,51.991358 245.706121,52.7106996 C246.06577,53.2502058 246.245594,54.1493827 246.425419,55.0485597 M232.758749,59.1847737 C234.377171,59.1847737 235.815768,59.1847737 237.07454,59.0049383 C238.333312,58.8251029 239.41226,58.6452675 240.311383,58.2855967 C241.210506,57.9259259 241.749979,57.5662551 242.289453,57.026749 C242.649102,56.4872428 243.008752,55.9477366 242.828927,55.0485597 C242.828927,54.6888889 242.649102,54.5090535 242.649102,54.1493827 C242.469278,53.7897119 242.289453,53.6098765 241.929804,53.4300412 C241.570155,53.2502058 241.39033,53.0703704 240.850856,52.890535 C240.491207,52.7106996 239.951733,52.7106996 239.41226,52.7106996 C238.513137,52.7106996 237.793838,52.890535 237.07454,53.2502058 C236.355241,53.6098765 235.635943,53.9695473 235.096469,54.5090535 C234.556995,55.0485597 234.017522,55.7679012 233.657872,56.6670782 C233.298223,57.2065844 232.938574,58.1057613 232.758749,59.1847737" id="Shape" fill="#564B73"></path>
            <path d="M267.105248,55.0485597 C267.285073,56.3074074 266.925424,57.3864198 266.38595,58.2855967 C265.846476,59.1847737 264.947353,59.9041152 263.688581,60.4436214 C262.429809,60.9831276 260.991212,61.3427984 259.192966,61.7024691 C257.39472,61.8823045 255.416649,62.0621399 253.078929,62.2419753 L253.078929,62.7814815 L253.078929,63.3209877 C253.258754,65.299177 253.798228,66.7378601 254.877175,67.4572016 C255.956123,68.3563786 257.39472,68.7160494 259.37279,68.7160494 C259.912264,68.7160494 260.451738,68.7160494 260.991212,68.536214 C261.530686,68.536214 262.070159,68.3563786 262.609633,68.1765432 C263.149107,67.9967078 263.688581,67.9967078 264.04823,67.8168724 C264.587704,67.637037 264.947353,67.4572016 265.307002,67.2773663 L264.947353,70.5144033 C264.228055,70.8740741 263.328932,71.2337449 262.249984,71.4135802 C261.171036,71.5934156 260.092089,71.773251 259.013141,71.773251 C257.574544,71.773251 256.135948,71.5934156 255.057,71.2337449 C253.978052,70.8740741 253.078929,70.1547325 252.179806,69.4353909 C251.460508,68.7160494 250.921034,67.8168724 250.38156,66.7378601 C250.021911,65.6588477 249.662262,64.5798354 249.662262,63.3209877 C249.662262,62.2419753 249.662262,60.9831276 249.842086,59.9041152 C250.021911,58.8251029 250.201736,57.7460905 250.561385,56.6670782 C250.921034,55.5880658 251.460508,54.6888889 251.999982,53.7897119 C252.539456,52.890535 253.258754,52.1711934 254.157877,51.4518519 C254.877175,50.7325103 255.776298,50.3728395 256.855246,50.0131687 C257.934194,49.6534979 259.013141,49.4736626 260.271913,49.4736626 C261.171036,49.4736626 262.070159,49.6534979 262.789458,49.8333333 C263.508756,50.0131687 264.407879,50.3728395 264.947353,50.9123457 C265.666651,51.4518519 266.026301,51.991358 266.565774,52.7106996 C266.745599,53.2502058 267.105248,54.1493827 267.105248,55.0485597 M253.618403,59.1847737 C255.236825,59.1847737 256.675421,59.1847737 257.934194,59.0049383 C259.192966,58.8251029 260.271913,58.6452675 261.171036,58.2855967 C262.070159,57.9259259 262.609633,57.5662551 263.149107,57.026749 C263.508756,56.4872428 263.868405,55.9477366 263.688581,55.0485597 C263.688581,54.6888889 263.508756,54.5090535 263.508756,54.1493827 C263.328932,53.7897119 263.149107,53.6098765 262.789458,53.4300412 C262.429809,53.2502058 262.249984,53.0703704 261.71051,52.890535 C261.350861,52.7106996 260.811387,52.7106996 260.271913,52.7106996 C259.37279,52.7106996 258.653492,52.890535 257.934194,53.2502058 C257.214895,53.6098765 256.495597,53.9695473 255.956123,54.5090535 C255.416649,55.0485597 254.877175,55.7679012 254.517526,56.6670782 C253.978052,57.2065844 253.798228,58.1057613 253.618403,59.1847737" id="Shape" fill="#564B73"></path>
            <path d="M273.758758,71.2337449 L270.342091,71.2337449 L273.219285,50.1930041 L276.096478,50.1930041 L276.276303,53.0703704 L276.276303,53.0703704 C277.175426,51.991358 278.074549,51.0921811 279.333321,50.5526749 C280.592093,50.0131687 281.850866,49.6534979 283.469287,49.6534979 C284.36841,49.6534979 285.087708,49.8333333 285.807007,50.0131687 C286.526305,50.1930041 287.065779,50.5526749 287.605253,50.9123457 C288.144727,51.2720165 288.504376,51.8115226 288.864025,52.5308642 C289.223674,53.2502058 289.403499,53.9695473 289.403499,54.6888889 L289.403499,56.4872428 C289.403499,57.2065844 289.223674,57.7460905 289.223674,58.4654321 L287.425428,71.2337449 L284.008761,71.2337449 L285.807007,58.1057613 C285.986831,57.026749 285.986831,56.127572 285.986831,55.4082305 C285.986831,54.8687243 285.807007,54.3292181 285.627182,53.9695473 C285.447358,53.6098765 285.267533,53.2502058 284.907884,53.0703704 C284.548235,52.890535 284.188585,52.7106996 283.828936,52.5308642 C283.469287,52.3510288 282.929813,52.3510288 282.570164,52.3510288 C281.491216,52.3510288 280.592093,52.5308642 279.872795,52.890535 C278.973672,53.2502058 278.254374,53.7897119 277.7149,54.3292181 C277.175426,55.0485597 276.635952,55.7679012 276.096478,56.4872428 C275.736829,57.3864198 275.37718,58.2855967 275.37718,59.3646091 L273.758758,71.2337449 L273.758758,71.2337449 Z" id="Shape" fill="#564B73"></path>
            <path d="M305.228064,71.4135802 C304.868415,71.5934156 304.328941,71.5934156 303.789467,71.773251 C303.070169,71.773251 302.530695,71.9530864 301.811396,71.9530864 C300.01315,71.9530864 298.574553,71.5934156 297.67543,70.8740741 C296.776307,70.1547325 296.236834,69.0757202 296.236834,67.8168724 C296.236834,67.2773663 296.236834,66.7378601 296.416658,66.0185185 L298.214904,53.4300412 L294.078938,53.4300412 L294.438588,50.5526749 L298.574553,50.5526749 L299.293852,44.7979424 L302.710519,44.7979424 L301.991221,50.5526749 L307.565784,50.5526749 L307.206134,53.4300412 L301.631572,53.4300412 L300.01315,65.299177 C300.01315,65.6588477 300.01315,66.0185185 299.833326,66.3781893 L299.833326,67.2773663 C299.833326,67.9967078 300.192975,68.536214 300.552624,68.8958848 C300.912273,69.2555556 301.631572,69.4353909 302.710519,69.4353909 C303.070169,69.4353909 303.609642,69.4353909 304.328941,69.2555556 C304.868415,69.2555556 305.407888,69.0757202 305.947362,68.8958848 L305.228064,71.4135802 L305.228064,71.4135802 Z" id="Shape" fill="#564B73"></path>
            <path d="M326.986841,55.0485597 C327.166665,56.3074074 326.807016,57.3864198 326.267542,58.2855967 C325.728068,59.1847737 324.828945,59.9041152 323.570173,60.4436214 C322.311401,60.9831276 320.872804,61.3427984 319.074558,61.7024691 C317.276312,61.8823045 315.298241,62.0621399 312.960522,62.2419753 L312.960522,62.7814815 L312.960522,63.3209877 C313.140346,65.299177 313.67982,66.7378601 314.758768,67.4572016 C315.837715,68.3563786 317.276312,68.7160494 319.254383,68.7160494 C319.793856,68.7160494 320.33333,68.7160494 320.872804,68.536214 C321.412278,68.536214 321.951752,68.3563786 322.491226,68.1765432 C323.030699,67.9967078 323.570173,67.9967078 323.929822,67.8168724 C324.469296,67.637037 324.828945,67.4572016 325.188595,67.2773663 L324.828945,70.5144033 C324.109647,70.8740741 323.210524,71.2337449 322.131576,71.4135802 C321.052629,71.5934156 319.973681,71.773251 318.894733,71.773251 C317.456137,71.773251 316.01754,71.5934156 314.938592,71.2337449 C313.859645,70.8740741 312.960522,70.1547325 312.061399,69.4353909 C311.3421,68.7160494 310.802626,67.8168724 310.263153,66.7378601 C309.903503,65.6588477 309.543854,64.5798354 309.543854,63.3209877 C309.543854,62.2419753 309.543854,60.9831276 309.723679,59.9041152 C309.903503,58.8251029 310.083328,57.7460905 310.442977,56.6670782 C310.802626,55.5880658 311.3421,54.6888889 311.881574,53.7897119 C312.421048,52.890535 313.140346,52.1711934 314.039469,51.4518519 C314.758768,50.7325103 315.837715,50.3728395 316.736838,50.0131687 C317.815786,49.6534979 318.894733,49.4736626 320.153506,49.4736626 C321.052629,49.4736626 321.951752,49.6534979 322.67105,49.8333333 C323.390349,50.0131687 324.289472,50.3728395 324.828945,50.9123457 C325.548244,51.4518519 325.907893,51.991358 326.447367,52.7106996 C326.627191,53.2502058 326.986841,54.1493827 326.986841,55.0485597 M313.499995,59.1847737 C315.118417,59.1847737 316.557014,59.1847737 317.815786,59.0049383 C319.074558,58.8251029 320.153506,58.6452675 321.052629,58.2855967 C321.951752,57.9259259 322.491226,57.5662551 323.030699,57.026749 C323.390349,56.4872428 323.749998,55.9477366 323.570173,55.0485597 C323.570173,54.6888889 323.390349,54.5090535 323.390349,54.1493827 C323.210524,53.7897119 323.030699,53.6098765 322.67105,53.4300412 C322.311401,53.2502058 322.131576,53.0703704 321.592102,52.890535 C321.232453,52.7106996 320.692979,52.7106996 320.153506,52.7106996 C319.254383,52.7106996 318.535084,52.890535 317.815786,53.2502058 C317.096487,53.6098765 316.377189,53.9695473 315.837715,54.5090535 C315.298241,55.0485597 314.758768,55.7679012 314.399118,56.6670782 C313.859645,57.2065844 313.67982,58.1057613 313.499995,59.1847737" id="Shape" fill="#564B73"></path>
            <path d="M161.907856,87.41893 C160.649084,87.41893 159.390312,87.5987654 158.13154,87.9584362 C157.052592,88.318107 155.973644,88.8576132 155.074521,89.7567901 C154.175398,90.4761317 153.276275,91.3753086 152.736802,92.2744856 C152.017503,93.3534979 151.478029,94.4325103 151.11838,95.5115226 C150.758731,96.7703704 150.399082,97.8493827 150.219257,99.2880658 C150.039433,100.546914 150.039433,101.985597 150.039433,103.244444 C150.219257,105.042798 150.399082,106.481481 151.11838,107.560494 C151.657854,108.639506 152.377152,109.538683 153.276275,110.078189 C154.175398,110.617695 155.074521,111.157202 156.153469,111.337037 C157.232417,111.516872 158.311364,111.696708 159.390312,111.696708 C160.649084,111.696708 161.728032,111.516872 162.806979,111.337037 C163.885927,111.157202 164.964875,110.797531 165.863998,110.617695 L165.324524,113.854733 C164.425401,114.214403 163.346453,114.394239 162.267506,114.574074 C161.188558,114.753909 160.10961,114.753909 158.850838,114.753909 C157.232417,114.753909 155.613995,114.574074 154.175398,114.034568 C152.736802,113.674897 151.478029,112.955556 150.219257,112.056379 C149.14031,111.157202 148.241187,109.898354 147.521888,108.459671 C146.80259,107.020988 146.442941,105.222634 146.263116,103.244444 C146.263116,101.805761 146.263116,100.187243 146.442941,98.7485597 C146.622765,97.1300412 146.982414,95.691358 147.521888,94.2526749 C148.061362,92.8139918 148.78066,91.555144 149.679783,90.2962963 C150.578906,89.0374486 151.657854,87.9584362 152.736802,87.0592593 C153.995574,86.1600823 155.254346,85.4407407 156.872767,84.9012346 C158.491189,84.3617284 160.10961,84.0020576 162.087681,84.0020576 C163.346453,84.0020576 164.605225,84.181893 165.684173,84.3617284 C166.763121,84.5415638 167.662244,84.9012346 168.561367,85.08107 L167.842068,88.4979424 C166.942945,88.1382716 166.043822,87.9584362 165.144699,87.7786008 C164.245576,87.41893 162.986804,87.41893 161.907856,87.41893" id="Shape" fill="#564B73"></path>
            <path d="M188.162248,101.08642 L188.162248,103.963786 C187.982424,105.042798 187.802599,106.121811 187.44295,107.020988 C187.083301,108.1 186.723651,108.999177 186.184178,109.898354 C185.644704,110.797531 184.925405,111.696708 184.206107,112.416049 C183.486809,113.135391 182.407861,113.674897 181.328913,114.214403 C180.249966,114.574074 178.991193,114.933745 177.732421,114.933745 C176.653474,114.933745 175.574526,114.753909 174.675403,114.394239 C173.77628,114.034568 172.877157,113.495062 172.157859,112.77572 C171.43856,112.056379 170.899086,111.337037 170.539437,110.258025 C170.179788,109.358848 169.820139,108.1 169.820139,106.841152 L169.820139,103.783951 C169.999963,102.704938 170.179788,101.625926 170.539437,100.546914 C170.899086,99.4679012 171.258736,98.3888889 171.798209,97.4897119 C172.337683,96.590535 173.056982,95.691358 173.77628,94.9720165 C174.495578,94.2526749 175.574526,93.7131687 176.473649,93.1736626 C177.552597,92.8139918 178.811369,92.454321 180.070141,92.454321 C181.149089,92.454321 182.228036,92.6341564 183.127159,92.9938272 C184.026282,93.3534979 184.925405,93.8930041 185.644704,94.6123457 C186.364002,95.3316872 186.903476,96.2308642 187.44295,97.1300412 C187.802599,98.3888889 187.982424,99.6477366 188.162248,101.08642 M179.890316,95.691358 C178.991193,95.691358 178.271895,95.8711934 177.552597,96.2308642 C176.833298,96.590535 176.293824,96.9502058 175.754351,97.4897119 C175.214877,98.0292181 174.675403,98.7485597 174.315754,99.4679012 C173.956105,100.187243 173.596455,100.906584 173.416631,101.805761 C173.236806,102.704938 173.056982,103.42428 172.877157,104.323457 C172.877157,105.222634 172.697332,106.121811 172.877157,106.841152 C172.877157,107.560494 173.056982,108.279835 173.236806,108.999177 C173.416631,109.718519 173.77628,110.258025 174.135929,110.617695 C174.495578,111.157202 175.035052,111.337037 175.574526,111.696708 C176.114,111.876543 176.833298,112.056379 177.552597,112.056379 C178.45172,112.056379 179.171018,111.876543 179.890316,111.516872 C180.609615,111.157202 181.149089,110.797531 181.688562,110.258025 C182.228036,109.718519 182.76751,108.999177 183.127159,108.279835 C183.486809,107.560494 183.846458,106.841152 184.026282,105.941975 C184.206107,105.042798 184.385932,104.323457 184.565756,103.42428 C184.565756,102.525103 184.745581,101.625926 184.565756,100.906584 C184.565756,100.187243 184.385932,99.4679012 184.206107,98.7485597 C184.026282,98.0292181 183.666633,97.4897119 183.306984,97.1300412 C182.947335,96.590535 182.407861,96.4106996 181.868387,96.0510288 C181.328913,95.8711934 180.609615,95.691358 179.890316,95.691358" id="Shape" fill="#564B73"></path>
            <path d="M209.201727,98.2090535 C209.381551,99.4679012 209.021902,100.546914 208.482428,101.446091 C207.942954,102.345267 207.043831,103.064609 205.785059,103.604115 C204.526287,104.143621 203.08769,104.503292 201.289444,104.862963 C199.491198,105.042798 197.513127,105.222634 195.175408,105.402469 L195.175408,105.941975 L195.175408,106.481481 C195.355232,108.459671 195.894706,109.898354 196.973654,110.617695 C198.052601,111.516872 199.491198,111.876543 201.469269,111.876543 C202.008742,111.876543 202.548216,111.876543 203.08769,111.696708 C203.627164,111.696708 204.166638,111.516872 204.706111,111.337037 C205.245585,111.157202 205.785059,111.157202 206.144708,110.977366 C206.684182,110.797531 207.043831,110.617695 207.403481,110.43786 L207.043831,113.674897 C206.324533,114.034568 205.42541,114.394239 204.346462,114.574074 C203.267515,114.753909 202.188567,114.933745 201.109619,114.933745 C199.671023,114.933745 198.232426,114.753909 197.153478,114.394239 C196.074531,114.034568 195.175408,113.315226 194.276285,112.595885 C193.556986,111.876543 193.017512,110.977366 192.478039,109.898354 C192.118389,108.819342 191.75874,107.740329 191.75874,106.481481 C191.75874,105.402469 191.75874,104.143621 191.938565,103.064609 C192.118389,101.985597 192.298214,100.906584 192.657863,99.827572 C193.017512,98.7485597 193.556986,97.8493827 194.09646,96.9502058 C194.635934,96.0510288 195.355232,95.3316872 196.254355,94.6123457 C196.973654,93.8930041 198.052601,93.5333333 198.951724,93.1736626 C200.030672,92.8139918 201.109619,92.6341564 202.368392,92.6341564 C203.267515,92.6341564 204.166638,92.8139918 204.885936,92.9938272 C205.605235,93.1736626 206.504358,93.5333333 207.043831,94.0728395 C207.76313,94.6123457 208.122779,95.1518519 208.662253,95.8711934 C209.021902,96.4106996 209.201727,97.3098765 209.201727,98.2090535 M195.714881,102.345267 C197.333303,102.345267 198.7719,102.345267 200.030672,102.165432 C201.289444,101.985597 202.368392,101.805761 203.267515,101.446091 C204.166638,101.08642 204.706111,100.726749 205.245585,100.187243 C205.605235,99.6477366 205.964884,99.1082305 205.785059,98.2090535 C205.785059,97.8493827 205.605235,97.6695473 205.605235,97.3098765 C205.42541,96.9502058 205.245585,96.7703704 204.885936,96.590535 C204.526287,96.4106996 204.346462,96.2308642 203.806988,96.0510288 C203.447339,95.8711934 202.907865,95.8711934 202.368392,95.8711934 C201.469269,95.8711934 200.74997,96.0510288 200.030672,96.4106996 C199.311373,96.7703704 198.592075,97.1300412 198.052601,97.6695473 C197.513127,98.2090535 196.973654,98.9283951 196.614004,99.827572 C196.254355,100.367078 195.894706,101.266255 195.714881,102.345267" id="Shape" fill="#564B73"></path>
            <path d="M215.855237,93.3534979 L218.912255,104.683128 C219.271904,105.941975 219.451729,107.020988 219.811378,107.920165 C219.991203,108.819342 220.171027,109.718519 220.350852,110.258025 L220.350852,110.258025 C220.710501,109.538683 221.07015,108.819342 221.429799,107.920165 C221.789449,107.020988 222.328922,106.121811 222.688572,105.222634 L228.622783,93.1736626 L232.578925,93.1736626 L221.609624,114.214403 L218.372781,114.214403 L212.258745,93.1736626 L215.855237,93.1736626 L215.855237,93.3534979 Z" id="Shape" fill="#564B73"></path>
            <path d="M252.539456,101.08642 L252.539456,103.963786 C252.359631,105.042798 252.179806,106.121811 251.820157,107.020988 C251.460508,108.1 251.100859,108.999177 250.561385,109.898354 C250.021911,110.797531 249.302613,111.696708 248.583314,112.416049 C247.864016,113.135391 246.785068,113.674897 245.706121,114.214403 C244.627173,114.574074 243.368401,114.933745 242.109629,114.933745 C241.030681,114.933745 239.951733,114.753909 239.05261,114.394239 C238.153487,114.034568 237.254364,113.495062 236.535066,112.77572 C235.815768,112.056379 235.276294,111.337037 234.916645,110.258025 C234.556995,109.358848 234.197346,108.1 234.197346,106.841152 L234.197346,103.783951 C234.377171,102.704938 234.556995,101.625926 234.916645,100.546914 C235.276294,99.4679012 235.635943,98.3888889 236.175417,97.4897119 C236.714891,96.590535 237.434189,95.691358 238.153487,94.9720165 C238.872786,94.2526749 239.951733,93.7131687 241.030681,93.1736626 C242.109629,92.8139918 243.368401,92.454321 244.627173,92.454321 C245.706121,92.454321 246.785068,92.6341564 247.684191,92.9938272 C248.583314,93.3534979 249.482437,93.8930041 250.201736,94.6123457 C250.921034,95.3316872 251.460508,96.2308642 251.999982,97.1300412 C252.179806,98.3888889 252.359631,99.6477366 252.539456,101.08642 M244.447348,95.691358 C243.548225,95.691358 242.828927,95.8711934 242.109629,96.2308642 C241.39033,96.590535 240.850856,96.9502058 240.311383,97.4897119 C239.771909,98.0292181 239.232435,98.7485597 238.872786,99.4679012 C238.513137,100.187243 238.153487,100.906584 237.973663,101.805761 C237.793838,102.704938 237.614014,103.42428 237.434189,104.323457 C237.434189,105.222634 237.254364,106.121811 237.434189,106.841152 C237.434189,107.560494 237.614014,108.279835 237.793838,108.999177 C237.973663,109.718519 238.333312,110.258025 238.692961,110.617695 C239.05261,111.157202 239.592084,111.337037 240.131558,111.696708 C240.671032,111.876543 241.39033,112.056379 242.109629,112.056379 C243.008752,112.056379 243.72805,111.876543 244.447348,111.516872 C245.166647,111.157202 245.706121,110.797531 246.245594,110.258025 C246.785068,109.718519 247.324542,108.999177 247.684191,108.279835 C248.04384,107.560494 248.40349,106.841152 248.583314,105.941975 C248.763139,105.042798 248.942963,104.323457 249.122788,103.42428 C249.122788,102.525103 249.302613,101.625926 249.122788,100.906584 C249.122788,100.187243 248.942963,99.4679012 248.763139,98.7485597 C248.583314,98.0292181 248.223665,97.4897119 247.864016,97.1300412 C247.504367,96.590535 246.964893,96.4106996 246.425419,96.0510288 C245.706121,95.8711934 245.166647,95.691358 244.447348,95.691358" id="Shape" fill="#564B73"></path>
            <path d="M269.442968,96.2308642 L268.004371,96.2308642 C266.925424,96.2308642 266.026301,96.4106996 265.307002,96.7703704 C264.587704,97.1300412 263.868405,97.6695473 263.328932,98.2090535 C262.789458,98.7485597 262.249984,99.4679012 261.890335,100.367078 C261.530686,101.08642 261.350861,101.985597 261.171036,102.884774 L259.552615,114.574074 L256.135948,114.574074 L259.013141,93.5333333 L261.890335,93.5333333 L262.070159,96.4106996 L262.070159,96.4106996 C262.429809,95.8711934 262.789458,95.5115226 263.149107,95.1518519 C263.508756,94.7921811 264.04823,94.4325103 264.587704,94.0728395 C265.127178,93.7131687 265.666651,93.5333333 266.206125,93.3534979 C266.745599,93.1736626 267.464897,93.1736626 268.184196,93.1736626 L268.903494,93.1736626 C269.083319,93.1736626 269.442968,93.1736626 269.622793,93.3534979 L269.442968,96.2308642 L269.442968,96.2308642 Z" id="Shape" fill="#564B73"></path>
            <path d="M277.175426,114.933745 C276.276303,114.933745 275.37718,114.753909 274.657881,114.394239 C273.938583,114.034568 273.219285,113.674897 272.679811,112.955556 C272.140337,112.416049 271.780688,111.516872 271.421039,110.797531 C271.061389,109.898354 270.881565,108.999177 270.881565,107.920165 L270.881565,104.143621 C271.061389,102.884774 271.241214,101.805761 271.600863,100.546914 C271.960512,99.4679012 272.320162,98.3888889 272.859635,97.4897119 C273.399109,96.590535 274.118408,95.691358 274.837706,94.9720165 C275.557004,94.2526749 276.456128,93.7131687 277.355251,93.3534979 C278.254374,92.9938272 279.333321,92.8139918 280.412269,92.8139918 C281.671041,92.8139918 282.749989,92.9938272 283.649112,93.5333333 C284.548235,94.0728395 285.267533,94.6123457 285.807007,95.5115226 L285.807007,95.5115226 L287.605253,82.3835391 L291.02192,82.3835391 L287.245604,109.538683 L287.245604,110.258025 L287.245604,110.797531 C287.245604,111.157202 287.425428,111.337037 287.605253,111.516872 C287.785077,111.696708 288.144727,111.696708 288.6842,111.696708 L289.403499,111.696708 C289.763148,111.696708 289.942973,111.696708 290.122797,111.516872 L289.763148,114.394239 C289.583323,114.394239 289.223674,114.574074 288.864025,114.574074 L287.785077,114.574074 C286.526305,114.574074 285.627182,114.214403 285.087708,113.674897 C284.548235,113.135391 284.188585,112.056379 284.188585,110.797531 L284.188585,110.797531 C283.828936,111.516872 283.289462,112.236214 282.749989,112.595885 C282.210515,113.135391 281.671041,113.495062 281.131567,113.854733 C280.592093,114.214403 280.05262,114.394239 279.333321,114.574074 C278.254374,114.933745 277.7149,114.933745 277.175426,114.933745 L277.175426,114.933745 Z M285.447358,98.0292181 C285.267533,97.8493827 284.907884,97.4897119 284.728059,97.1300412 C284.36841,96.7703704 284.188585,96.590535 283.649112,96.4106996 C283.289462,96.2308642 282.929813,96.0510288 282.390339,95.8711934 C281.850866,95.691358 281.491216,95.691358 280.951743,95.691358 C280.05262,95.691358 279.333321,95.8711934 278.614023,96.2308642 C277.894724,96.590535 277.355251,97.1300412 276.815777,97.6695473 C276.276303,98.2090535 275.916654,98.9283951 275.557004,99.827572 C275.197355,100.546914 274.837706,101.446091 274.657881,102.345267 C274.478057,103.244444 274.298232,104.143621 274.298232,104.862963 L274.298232,107.200823 C274.298232,108.1 274.478057,108.819342 274.837706,109.538683 C275.017531,110.078189 275.37718,110.617695 275.736829,110.977366 C276.096478,111.337037 276.456128,111.516872 276.815777,111.696708 C277.175426,111.876543 277.7149,111.876543 278.074549,111.876543 C278.793847,111.876543 279.513146,111.696708 280.232444,111.337037 C280.951743,110.977366 281.671041,110.43786 282.210515,109.718519 C282.749989,108.999177 283.289462,108.1 283.828936,107.020988 C284.188585,105.941975 284.548235,104.862963 284.728059,103.42428 L285.447358,98.0292181 L285.447358,98.0292181 Z" id="Shape" fill="#564B73"></path>
            <path d="M311.521925,98.2090535 C311.701749,99.4679012 311.3421,100.546914 310.802626,101.446091 C310.263153,102.345267 309.36403,103.064609 308.105257,103.604115 C306.846485,104.143621 305.407888,104.503292 303.609642,104.862963 C301.811396,105.042798 299.833326,105.222634 297.495606,105.402469 L297.495606,105.941975 L297.495606,106.481481 C297.67543,108.459671 298.214904,109.898354 299.293852,110.617695 C300.3728,111.516872 301.811396,111.876543 303.789467,111.876543 C304.328941,111.876543 304.868415,111.876543 305.407888,111.696708 C305.947362,111.696708 306.486836,111.516872 307.02631,111.337037 C307.565784,111.157202 308.105257,111.157202 308.464907,110.977366 C309.00438,110.797531 309.36403,110.617695 309.723679,110.43786 L309.36403,113.674897 C308.644731,114.034568 307.745608,114.394239 306.666661,114.574074 C305.587713,114.753909 304.508765,114.933745 303.429818,114.933745 C301.991221,114.933745 300.552624,114.753909 299.473677,114.394239 C298.394729,114.034568 297.495606,113.315226 296.596483,112.595885 C295.877184,111.876543 295.337711,110.977366 294.798237,109.898354 C294.438588,108.819342 294.078938,107.740329 294.078938,106.481481 C294.078938,105.402469 294.078938,104.143621 294.258763,103.064609 C294.438588,101.985597 294.618412,100.906584 294.978061,99.827572 C295.337711,98.7485597 295.877184,97.8493827 296.416658,96.9502058 C296.956132,96.0510288 297.67543,95.3316872 298.574553,94.6123457 C299.293852,93.8930041 300.3728,93.5333333 301.271923,93.1736626 C302.35087,92.8139918 303.429818,92.6341564 304.68859,92.6341564 C305.587713,92.6341564 306.486836,92.8139918 307.206134,92.9938272 C307.925433,93.1736626 308.824556,93.5333333 309.36403,94.0728395 C310.083328,94.6123457 310.442977,95.1518519 310.982451,95.8711934 C311.162276,96.4106996 311.3421,97.3098765 311.521925,98.2090535 M297.855255,102.345267 C299.473677,102.345267 300.912273,102.345267 302.171046,102.165432 C303.429818,101.985597 304.508765,101.805761 305.407888,101.446091 C306.307011,101.08642 306.846485,100.726749 307.385959,100.187243 C307.745608,99.6477366 308.105257,99.1082305 307.925433,98.2090535 C307.925433,97.8493827 307.745608,97.6695473 307.745608,97.3098765 C307.565784,96.9502058 307.385959,96.7703704 307.02631,96.590535 C306.666661,96.4106996 306.486836,96.2308642 305.947362,96.0510288 C305.587713,95.8711934 305.048239,95.8711934 304.508765,95.8711934 C303.609642,95.8711934 302.890344,96.0510288 302.171046,96.4106996 C301.451747,96.7703704 300.732449,97.1300412 300.192975,97.6695473 C299.653501,98.2090535 299.114027,98.9283951 298.754378,99.827572 C298.394729,100.367078 298.03508,101.266255 297.855255,102.345267" id="Shape" fill="#564B73"></path>
            <path d="M318.175435,114.394239 L314.758768,114.394239 L317.635961,93.3534979 L320.513155,93.3534979 L320.692979,96.2308642 L320.692979,96.2308642 C321.592102,95.1518519 322.491226,94.2526749 323.749998,93.7131687 C325.00877,93.1736626 326.267542,92.8139918 327.885964,92.8139918 C328.785087,92.8139918 329.504385,92.9938272 330.223683,93.1736626 C330.942982,93.3534979 331.482456,93.7131687 332.021929,94.2526749 C332.561403,94.6123457 332.921052,95.1518519 333.280702,95.8711934 C333.640351,96.590535 333.820175,97.3098765 333.820175,98.0292181 L333.820175,99.827572 C333.820175,100.546914 333.640351,101.08642 333.640351,101.805761 L331.842105,114.574074 L328.425437,114.574074 L330.223683,101.446091 C330.403508,100.367078 330.403508,99.4679012 330.403508,98.7485597 C330.403508,98.2090535 330.223683,97.6695473 330.043859,97.3098765 C329.864034,96.9502058 329.68421,96.590535 329.32456,96.4106996 C328.964911,96.2308642 328.605262,96.0510288 328.245613,95.8711934 C327.885964,95.691358 327.34649,95.691358 326.986841,95.691358 C325.907893,95.691358 325.00877,95.8711934 324.289472,96.2308642 C323.390349,96.590535 322.67105,97.1300412 322.131576,97.6695473 C321.592102,98.3888889 321.052629,99.1082305 320.513155,99.827572 C320.153506,100.726749 319.793856,101.625926 319.793856,102.704938 L318.175435,114.394239 L318.175435,114.394239 Z" id="Shape" fill="#564B73"></path>
            <polygon id="Shape" fill="#564B73" points="75.0525738 49.4736626 78.109592 37.7843621 71.6359064 29.8716049 67.8595897 36.7053498"></polygon>
            <polygon id="Shape" fill="#D6D3E1" points="67.8595897 36.7053498 63.0043255 28.073251 70.0174849 19.9806584 79.3683642 33.8279835 78.109592 37.7843621 71.6359064 29.8716049"></polygon>
            <polygon id="Shape" fill="#564B73" points="63.0043255 28.073251 54.3727446 12.6074074 66.6008175 0.0189300412 82.7850316 22.1386831 79.3683642 33.8279835 70.0174849 19.9806584"></polygon>
            <polygon id="Shape" fill="#877F9F" points="75.0525738 49.4736626 78.109592 37.7843621 87.1008221 37.9641975 85.3025761 47.855144"></polygon>
            <polygon id="Shape" fill="#FFFFFF" points="78.109592 37.7843621 79.3683642 33.8279835 91.5964371 33.8279835 89.4385419 47.1358025 85.3025761 47.855144 87.1008221 37.9641975"></polygon>
            <polygon id="Shape" fill="#877F9F" points="79.3683642 33.8279835 82.7850316 22.1386831 104.004335 22.1386831 100.407843 45.517284 89.4385419 47.1358025 91.5964371 33.8279835"></polygon>
            <polygon id="Shape" fill="#96B522" points="75.0525738 49.4736626 85.3025761 47.855144 91.4166125 53.7897119 84.0438039 56.6670782"></polygon>
            <polygon id="Shape" fill="#ECF0D9" points="85.3025761 47.855144 89.4385419 47.1358025 101.846439 56.4872428 90.5174895 61.5226337 84.0438039 56.6670782 91.4166125 53.7897119"></polygon>
            <polygon id="Shape" fill="#96B522" points="89.4385419 47.1358025 100.407843 45.517284 121.447321 61.7024691 104.004335 72.3127572 90.5174895 61.5226337 101.846439 56.4872428"></polygon>
            <polygon id="Shape" fill="#BECD75" points="75.0525738 49.4736626 76.8508198 60.8032922 83.8639793 63.3209877 84.0438039 56.6670782"></polygon>
            <polygon id="Shape" fill="#FFFFFF" points="84.0438039 56.6670782 90.5174895 61.5226337 93.3946831 78.7868313 78.4692412 71.9530864 76.8508198 60.8032922 83.8639793 63.3209877"></polygon>
            <polygon id="Shape" fill="#BECD75" points="78.4692412 71.9530864 81.5262594 91.0156379 107.061353 100.367078 104.004335 72.3127572 90.5174895 61.5226337 93.3946831 78.7868313"></polygon>
            <polygon id="Shape" fill="#564B73" points="75.0525738 49.4736626 76.8508198 60.8032922 66.4209929 70.5144033 64.2630977 56.4872428"></polygon>
            <polygon id="Shape" fill="#D6D3E1" points="76.8508198 60.8032922 78.4692412 71.9530864 59.4078334 87.5987654 57.4297628 61.162963 64.2630977 56.4872428 66.4209929 70.5144033"></polygon>
            <polygon id="Shape" fill="#564B73" points="57.4297628 61.162963 43.9429177 69.9748971 48.6183574 114.034568 81.5262594 91.0156379 78.4692412 71.9530864 59.4078334 87.5987654"></polygon>
            <polygon id="Shape" fill="#96B522" points="43.9429177 69.9748971 57.4297628 61.162963 28.8376512 51.2720165 49.5174804 38.6835391 30.4560726 30.5909465 0.245539541 52.3510288"></polygon>
            <polygon id="Shape" fill="#FFFFFF" points="49.5174804 38.6835391 61.5657287 43.71893 48.6183574 50.5526749 64.2630977 56.4872428 57.4297628 61.162963 28.8376512 51.2720165"></polygon>
            <polygon id="Shape" fill="#96B522" points="61.5657287 43.71893 75.0525738 49.4736626 64.2630977 56.4872428 48.6183574 50.5526749"></polygon>
            <polygon id="Shape" fill="#B3C55E" points="75.0525738 49.4736626 67.8595897 36.7053498 59.0481842 35.6263374 61.5657287 43.71893"></polygon>
            <polygon id="Shape" fill="#ECF0D9" points="61.5657287 43.71893 49.5174804 38.6835391 44.1227423 22.6781893 63.0043255 28.073251 67.8595897 36.7053498 59.0481842 35.6263374"></polygon>
            <polygon id="Shape" fill="#B3C55E" points="49.5174804 38.6835391 30.4560726 30.5909465 24.5218607 5.95349794 54.3727446 12.6074074 63.0043255 28.073251 44.1227423 22.6781893"></polygon>
        </g>
    </g>
</svg>
